HIERARCHY
ROOT RootJoint
{
    OFFSET   0.000000   0.000000   0.000000
    CHANNELS 6 Xposition Yposition Zposition Xrotation Yrotation Zrotation
    JOINT pelvis_lowerback
    {
        OFFSET   0.000000   0.093605   0.000000
        CHANNELS 3 Xrotation Yrotation Zrotation
        JOINT lowerback_torso
        {
            OFFSET   0.000000   0.100000   0.000000
            CHANNELS 3 Xrotation Yrotation Zrotation
            JOINT torso_head
            {
                OFFSET   0.000000   0.282350   0.000000
                CHANNELS 3 Xrotation Yrotation Zrotation
                End Site
                {
                    OFFSET   0.000000   0.192650   0.000000
                }
            }
            JOINT rTorso_Clavicle
            {
                OFFSET  -0.001000   0.157500   0.000000
                CHANNELS 3 Xrotation Yrotation Zrotation
                JOINT rShoulder
                {
                    OFFSET  -0.117647   0.000000   0.000000
                    CHANNELS 3 Xrotation Yrotation Zrotation
                    JOINT rElbow
                    {
                        OFFSET  -0.245000   0.000000   0.000000
                        CHANNELS 3 Xrotation Yrotation Zrotation
                        JOINT rWrist
                        {
                            OFFSET  -0.240000   0.000000   0.000000
                            CHANNELS 3 Xrotation Yrotation Zrotation
                            End Site
                            {
                                OFFSET  -0.116353  -0.002500   0.000000
                            }
                        }
                    }
                }
            }
            JOINT lTorso_Clavicle
            {
                OFFSET   0.001000   0.157500   0.000000
                CHANNELS 3 Xrotation Yrotation Zrotation
                JOINT lShoulder
                {
                    OFFSET   0.117647   0.000000   0.000000
                    CHANNELS 3 Xrotation Yrotation Zrotation
                    JOINT lElbow
                    {
                        OFFSET   0.245000   0.000000   0.000000
                        CHANNELS 3 Xrotation Yrotation Zrotation
                        JOINT lWrist
                        {
                            OFFSET   0.240000   0.000000   0.000000
                            CHANNELS 3 Xrotation Yrotation Zrotation
                            End Site
                            {
                                OFFSET   0.116353  -0.002500   0.000000
                            }
                        }
                    }
                }
            }
        }
    }
    JOINT rHip
    {
        OFFSET  -0.100000  -0.051395   0.000000
        CHANNELS 3 Xrotation Yrotation Zrotation
        JOINT rKnee
        {
            OFFSET   0.000000  -0.410000   0.000000
            CHANNELS 3 Xrotation Yrotation Zrotation
            JOINT rAnkle
            {
                OFFSET   0.000000  -0.390000   0.000000
                CHANNELS 3 Xrotation Yrotation Zrotation
                JOINT rToeJoint
                {
                    OFFSET   0.000000  -0.050000   0.130000
                    CHANNELS 3 Xrotation Yrotation Zrotation
                    End Site
                    {
                        OFFSET  -0.010000   0.002000   0.060000
                    }
                }
            }
        }
    }
    JOINT lHip
    {
        OFFSET   0.100000  -0.051395   0.000000
        CHANNELS 3 Xrotation Yrotation Zrotation
        JOINT lKnee
        {
            OFFSET   0.000000  -0.410000   0.000000
            CHANNELS 3 Xrotation Yrotation Zrotation
            JOINT lAnkle
            {
                OFFSET   0.000000  -0.390000   0.000000
                CHANNELS 3 Xrotation Yrotation Zrotation
                JOINT lToeJoint
                {
                    OFFSET   0.000000  -0.050000   0.130000
                    CHANNELS 3 Xrotation Yrotation Zrotation
                    End Site
                    {
                        OFFSET   0.010000   0.002000   0.060000
                    }
                }
            }
        }
    }
}
MOTION
Frames: 15
Frame Time:   0.008333
 -2.376719   0.925631   3.975860   0.000000   0.000000   0.000000   0.000000   0.000000   0.000000   0.000000   0.000000   0.000000   0.000000   0.000000   0.000000   0.000000   0.000000   0.000000   0.000000   0.000000   0.000000   0.000000   0.000000   0.000000   0.000000   0.000000   0.000000   0.000000   0.000000   0.000000   0.000000   0.000000   0.000000   0.000000   0.000000   0.000000   0.000000   0.000000   0.000000   0.000000   0.000000   0.000000   0.000000   0.000000   0.000000   0.000000   0.000000   0.000000   0.000000   0.000000   0.000000   0.000000   0.000000   0.000000   0.000000   0.000000   0.000000   0.000000   0.000000   0.000000   0.000000   0.000000   0.000000
 -2.376728   0.925541   3.974810  -0.154574  -0.321376  -0.252357   0.539912   0.129378   0.334812  -0.185263  -0.183367  -0.005959  -0.266927  -0.084338   0.161043  -0.252495  -0.389397  -0.428014   0.071552   0.349270   1.907926   0.048326   3.548267  -0.002021   0.055102  -1.629738  -1.684626  -0.058585   0.472442  -0.007677   0.229957   0.207246  -1.766965   0.013121  -0.885145   0.002936   0.061714   0.224726   2.020632  -0.399837  -0.068983   0.139033   1.861280   0.001744  -0.006350  -1.969717  -0.598331   0.133944  -0.196907   0.000026   0.001692  -0.921744   0.726044   0.467437   2.765392  -0.004733   0.010028  -1.726890   0.492044   0.041586   0.089259  -0.000197   0.000701
 -2.376781   0.925382   3.973883  -0.428934  -0.888919  -0.526614   1.079346   0.349514   0.680089  -0.286881  -0.251290   0.005859  -0.491247  -0.179903   0.341213  -0.491520  -0.609802  -0.406926   0.110704   0.857702   4.041834   0.111404   7.246985  -0.002458   0.116015  -2.192894  -2.832900  -0.104272   0.944793  -0.530190   0.451512   0.404926  -3.831061   0.028907  -1.727265   0.004886   0.138904   0.265564   3.477184  -0.585547  -0.152137   0.169219   3.834387   0.004853  -0.016502  -3.809481  -1.170724   0.242237  -0.468155  -0.000338   0.004231  -1.842752   1.444724   1.137623   5.657948  -0.012115   0.013256  -3.323157   0.967061   0.103449   0.175846  -0.000476   0.001053
 -2.376860   0.924882   3.973086  -0.720449  -1.588805  -0.784795   1.561053   0.636307   0.997172  -0.380697  -0.223587   0.010652  -0.698684  -0.273206   0.517172  -0.710998  -0.706556  -0.072909   0.120138   1.423709   6.270235   0.173942  10.925824  -0.000526   0.180686  -2.343078  -3.447588  -0.139896   1.381096  -1.371833   0.664492   0.575347  -6.023654   0.043580  -2.517306   0.005820   0.215767   0.250994   4.344445  -0.622725  -0.240151   0.064028   5.742472   0.008311  -0.026920  -5.522642  -1.711909   0.326429  -0.714576  -0.000926   0.006225  -2.784532   2.105295   1.933178   8.387915  -0.020380   0.012550  -4.809342   1.410551   0.177573   0.267751  -0.000818   0.001214
 -2.376964   0.923854   3.972388  -1.004380  -2.339472  -1.023746   1.989632   0.966525   1.282254  -0.483130  -0.128954   0.005220  -0.898465  -0.362318   0.683310  -0.909708  -0.714632   0.462097   0.103494   2.018910   8.517948   0.224621  14.389659   0.002618   0.247326  -2.257742  -3.663750  -0.166842   1.778413  -2.399531   0.869368   0.716975  -8.251217   0.055587  -3.258506   0.006073   0.290270   0.208174   4.782519  -0.545085  -0.328404  -0.161117   7.560939   0.011589  -0.035870  -7.120166  -2.222105   0.388801  -0.941115  -0.001598   0.007631  -3.761178   2.704261   2.821704  10.920393  -0.028399   0.011011  -6.197623   1.823489   0.260037   0.348276  -0.001106   0.001225
 -2.377089   0.922166   3.971769  -1.275296  -3.093313  -1.245440   2.374704   1.322113   1.537372  -0.591721   0.009521  -0.008523  -1.091485  -0.446471   0.838511  -1.087566  -0.668606   1.117034   0.065857   2.614736  10.732863   0.261261  17.637160   0.005818   0.309520  -2.077529  -3.606699  -0.186045   2.144035  -3.524164   1.066289   0.835314 -10.453557   0.064398  -3.952664   0.005906   0.361847   0.150063   4.930153  -0.373752  -0.413722  -0.484755   9.289258   0.014451  -0.042767  -8.610511  -2.701762   0.432090  -1.149541  -0.002256   0.008491  -4.771932   3.241445   3.780748  13.259590  -0.035397   0.009967  -7.495444   2.207768   0.348115   0.416460  -0.001307   0.001166
 -2.377234   0.919727   3.971215  -1.532316  -3.824028  -1.451732   2.724304   1.691150   1.765347  -0.701527   0.176904  -0.028625  -1.276523  -0.525597   0.982970  -1.246118  -0.590286   1.833957   0.011231   3.196424  12.879938   0.284368  20.676830   0.008417   0.365539  -1.856655  -3.373398  -0.198047   2.484633  -4.685624   1.255352   0.935955 -12.592209   0.070060  -4.601463   0.005488   0.429973   0.086593   4.888583  -0.125697  -0.494649  -0.886354  10.930476   0.016800  -0.047579 -10.001163  -3.151689   0.459024  -1.340866  -0.002837   0.008888  -5.810546   3.717255   4.790450  15.416956  -0.040932   0.009746  -8.708960   2.565174   0.439736   0.474085  -0.001426   0.001080
 -2.377251   0.916187   3.970431  -1.563041  -4.469482  -1.475595   3.047133   2.009476   1.771204  -0.992405   0.298836  -0.024154  -1.580581  -0.698643   1.074256  -1.244201  -0.602986   2.098966   0.252314   3.834084  14.953994   0.292627  23.670007  -0.002456   0.444771  -1.525686  -2.639331  -0.180699   2.869409  -5.222654   1.182642   1.087667 -14.949998   0.072078  -5.240871   0.003658   0.505996   0.026640   4.324266   0.105099  -0.721213  -1.427421  11.418963   0.014740  -0.042281 -10.611937  -3.687359   0.474620  -1.386373  -0.002504   0.007665  -6.955891   4.338691   5.540181  17.152036  -0.040451   0.012676  -9.816571   3.183443   0.392778   0.736718  -0.002238   0.002664
 -2.377078   0.913155   3.969598  -1.584846  -4.962613  -1.319174   3.416712   2.258342   1.650917  -1.260488   0.371289  -0.095867  -1.879689  -0.866408   1.150891  -1.238274  -0.632861   2.298966   0.461544   4.427214  16.837322   0.289689  26.464895  -0.011934   0.535697  -1.163768  -1.977897  -0.166734   3.218499  -5.686987   1.117383   1.229482 -17.110617   0.071284  -5.836272   0.002523   0.569078  -0.019010   3.800015   0.299814  -0.942186  -2.073415  11.688353   0.012421  -0.035741 -11.181773  -4.191047   0.480474  -1.365926  -0.001911   0.005918  -8.105257   5.173042   5.665973  19.403420  -0.031452   0.020534 -10.526098   3.858430   0.143370   0.957263  -0.001450   0.004307
 -2.377319   0.912242   3.969063  -1.698085  -5.528872  -1.782564   3.816901   2.559844   2.000224  -1.473039   0.479539   0.034839  -2.152037  -1.020841   1.236936  -1.232912  -0.656703   2.499048   0.640796   4.982325  18.569634   0.282126  29.061602  -0.018466   0.626281  -0.843947  -1.448773  -0.144396   3.567877  -6.235803   1.067932   1.379227 -19.183835   0.069258  -6.386437   0.001794   0.628159  -0.039213   3.325981   0.037093  -1.297976  -1.749850  12.201716   0.009287  -0.032923 -11.424257  -4.749264   0.691549  -1.295792  -0.001567   0.003817  -8.817808   5.736056   6.385718  21.025601  -0.025398   0.019755 -11.461858   4.388846   0.137971   1.243694  -0.001303   0.005201
 -2.377380   0.911571   3.968768  -1.788003  -5.879825  -2.080355   4.176683   2.757700   2.149993  -1.660790   0.521270   0.130559  -2.400046  -1.168301   1.326979  -1.213796  -0.709750   2.624239   0.805364   5.489628  20.175545   0.267647  31.486505  -0.023539   0.706180  -0.552826  -0.901228  -0.124336   3.880494  -6.628095   1.025083   1.513621 -21.065761   0.065642  -6.902020   0.001188   0.685324  -0.061733   2.845466  -0.172172  -1.562529  -1.557059  12.681236   0.006965  -0.029052 -11.756940  -5.201283   0.753281  -1.291954  -0.001251   0.003018  -9.481620   6.246717   6.837009  22.398627  -0.018977   0.019723 -12.385058   4.885529   0.136842   1.474100  -0.000917   0.005756
 -2.377303   0.910980   3.968623  -1.855014  -6.101543  -2.320644   4.513941   2.913137   2.243683  -1.837053   0.527593   0.187436  -2.631218  -1.306352   1.403079  -1.194906  -0.779374   2.678853   0.948906   5.953069  21.634215   0.248679  33.746661  -0.027290   0.781448  -0.293300  -0.425351  -0.108908   4.161213  -6.920905   0.985532   1.633910 -22.772433   0.061128  -7.385847   0.000682   0.740927  -0.094189   2.452264  -0.341873  -1.786374  -1.406691  13.102447   0.005274  -0.024976 -12.094113  -5.613585   0.790475  -1.293919  -0.001001   0.002430 -10.135788   6.730345   7.172511  23.656014  -0.013010   0.019990 -13.251233   5.347558   0.142203   1.667703  -0.000517   0.006027
 -2.377122   0.910413   3.968607  -1.903948  -6.249755  -2.537864   4.832651   3.049076   2.309328  -2.001077   0.520141   0.221749  -2.846178  -1.434958   1.469958  -1.181223  -0.854375   2.674119   1.070887   6.380743  22.956801   0.227502  35.854402  -0.029974   0.853793  -0.058200  -0.040267  -0.096293   4.418533  -7.140743   0.949654   1.744820 -24.327410   0.056187  -7.838662   0.000276   0.794561  -0.132248   2.146395  -0.486423  -1.986941  -1.271249  13.479648   0.004024  -0.021200 -12.422315  -5.995261   0.816836  -1.296648  -0.000801   0.001961 -10.769243   7.186210   7.444313  24.819840  -0.007839   0.019999 -14.061483   5.778082   0.153350   1.840284  -0.000157   0.006091
 -2.376563   0.909856   3.969142  -1.903221  -6.487050  -2.529093   4.999288   3.192611   2.164685  -2.140473   0.579510   0.195676  -2.986419  -1.592732   1.602128  -1.188863  -0.931807   2.505196   1.201292   6.755070  24.130017   0.198918  37.556228  -0.029122   0.887197   0.343697   0.605878  -0.059252   4.643699  -6.994313   0.937524   1.880691 -25.802051   0.050991  -8.318081  -0.000260   0.786096  -0.103915   1.474558  -0.684486  -2.211943  -1.418158  13.691892   0.003180  -0.017873 -11.572511  -6.278776   0.913401  -1.395902  -0.000762   0.002229 -10.915442   7.542247   7.334966  24.971571  -0.005948   0.016093 -14.249162   6.198088   0.412598   1.869039  -0.000131   0.005006
 -2.375830   0.909260   3.969895  -1.853527  -6.670374  -2.508750   5.113817   3.292737   2.030647  -2.306574   0.612682   0.162248  -3.122328  -1.740955   1.721280  -1.209499  -1.032700   2.223855   1.313055   7.077483  25.138445   0.170241  39.129391  -0.026739   0.918075   0.642935   1.136186  -0.023794   4.860054  -6.721232   0.928285   2.013578 -27.087295   0.045170  -8.765727  -0.000752   0.776431  -0.074351   0.895168  -0.911530  -2.423716  -1.574712  13.906316   0.002552  -0.015093 -10.746981  -6.540478   1.007106  -1.395729  -0.000613   0.001781 -10.987819   7.872978   7.169236  25.012990  -0.004664   0.012899 -14.426938   6.585947   0.655146   1.920860  -0.000099   0.004233
